<svg id="Component_46_12" data-name="Component 46 – 12" xmlns="http://www.w3.org/2000/svg" width="40" height="40" viewBox="0 0 40 40">
  <g id="Rectangle_28" data-name="Rectangle 28" fill="#fff" stroke="#005e9c" stroke-width="1">
    <rect width="40" height="40" rx="5" stroke="none"/>
    <rect x="0.5" y="0.5" width="39" height="39" rx="4.5" fill="none"/>
  </g>
  <path id="Icon_awesome-sort-alpha-down" data-name="Icon awesome-sort-alpha-down" d="M7.866,16.551H5.721V2.965a.715.715,0,0,0-.715-.715H3.575a.715.715,0,0,0-.715.715V16.551H.715a.715.715,0,0,0-.5,1.221l3.575,4.29a.715.715,0,0,0,1.011,0l3.575-4.29A.716.716,0,0,0,7.866,16.551Zm10.726-2.86H12.871a.715.715,0,0,0-.715.715v1.43a.715.715,0,0,0,.715.715h2.5L12.636,19.7a1.43,1.43,0,0,0-.48,1.069v.788a.715.715,0,0,0,.715.715h5.721a.715.715,0,0,0,.715-.715v-1.43a.715.715,0,0,0-.715-.715h-2.5l2.738-3.149a1.43,1.43,0,0,0,.48-1.069v-.788A.715.715,0,0,0,18.592,13.691ZM19.98,9.875,17.331,2.725a.715.715,0,0,0-.674-.475H14.805a.715.715,0,0,0-.674.475L11.483,9.875a.715.715,0,0,0,.673.956h1.11a.715.715,0,0,0,.681-.5l.2-.577h3.173l.2.577a.715.715,0,0,0,.682.5h1.11a.715.715,0,0,0,.673-.956ZM15,7.255l.732-2.145.732,2.145Z" transform="translate(9.99 7.739)" fill="#005e9c"/>
</svg>
