<svg xmlns="http://www.w3.org/2000/svg" width="28.887" height="28.887" viewBox="0 0 28.887 28.887">
  <g id="Icon_ionic-ios-close-circle-outline" data-name="Icon ionic-ios-close-circle-outline" transform="translate(-3.375 -3.375)">
    <path id="Path_365194" data-name="Path 365194" d="M23.159,21.589,19.5,17.93l3.659-3.659A1.11,1.11,0,0,0,21.589,12.7L17.93,16.361,14.27,12.7A1.11,1.11,0,0,0,12.7,14.27l3.659,3.659L12.7,21.589a1.073,1.073,0,0,0,0,1.569,1.1,1.1,0,0,0,1.569,0L17.93,19.5l3.659,3.659a1.115,1.115,0,0,0,1.569,0A1.1,1.1,0,0,0,23.159,21.589Z" transform="translate(-0.112 -0.112)" fill="#193256"/>
    <path id="Path_365195" data-name="Path 365195" d="M17.818,5.319a12.494,12.494,0,1,1-8.84,3.659,12.416,12.416,0,0,1,8.84-3.659m0-1.944A14.443,14.443,0,1,0,32.262,17.818,14.441,14.441,0,0,0,17.818,3.375Z" transform="translate(0 0)" fill="#193256"/>
  </g>
</svg>
