<svg xmlns="http://www.w3.org/2000/svg" width="12.138" height="13.072" viewBox="0 0 12.138 13.072">
  <g id="Group_107454" data-name="Group 107454" transform="translate(0 -2.25)">
    <path id="Icon_awesome-sort-alpha-down-alt" data-name="Icon awesome-sort-alpha-down-alt" d="M5.135,11.587h-1.4V2.717a.467.467,0,0,0-.467-.467H2.334a.467.467,0,0,0-.467.467v8.87H.467a.467.467,0,0,0-.329.8l2.334,2.8a.467.467,0,0,0,.66,0l2.334-2.8A.468.468,0,0,0,5.135,11.587Z" transform="translate(0)" fill="#fff"/>
    <path id="Icon_awesome-sort-alpha-down-alt-2" data-name="Icon awesome-sort-alpha-down-alt" d="M5.136,5.985h-1.4v8.87a.467.467,0,0,1-.467.467H2.334a.467.467,0,0,1-.467-.467V5.985H.467a.467.467,0,0,1-.329-.8l2.334-2.8a.467.467,0,0,1,.66,0l2.334,2.8A.468.468,0,0,1,5.136,5.985Z" transform="translate(6.536 0)" fill="#fff"/>
  </g>
</svg>
