<svg xmlns="http://www.w3.org/2000/svg" width="80.26" height="51.706" viewBox="0 0 80.26 51.706">
  <g id="HDFC_logo" transform="translate(-0.261 -0.643)">
    <path id="Path_365992" data-name="Path 365992" d="M57.123,22.345a2.412,2.412,0,0,0,2.578-2.2,2.611,2.611,0,0,0-5.157,0A2.413,2.413,0,0,0,57.123,22.345Z" transform="translate(-3.904 -1.244)" fill="#125a9e"/>
    <path id="Path_365993" data-name="Path 365993" d="M52.928,33.762a1.165,1.165,0,0,0-1.089-1.226c-1.644-.027-6.031,0-6.031,0s.056-5.979.051-9.605h0c.008-.735.029-2.033.019-2.456-.036-1.482-2.23-1.944-3.467-2a.89.89,0,0,0-1.061.926V34.144a1.294,1.294,0,0,0,1.029,1.178H52.94S52.928,34.542,52.928,33.762Z" transform="translate(-2.955 -1.282)" fill="#125a9e"/>
    <path id="Path_365994" data-name="Path 365994" d="M68.487,23.459c-.489-5.068,2.485-4.825,3.583-4.57.413.062.417-.359.41-.478a1.55,1.55,0,0,0-.562-1.018,5.111,5.111,0,0,0-3.046-.783c-3.6,0-4.716,2.675-4.716,4.861a16.837,16.837,0,0,1-.114,1.989H62.955c-.622,0-.873.652-.873.986v.807h1.931v5.505c-3.884,3.31-4.674,1.437-4.674.619,0-1.461.005-4.206.005-5.989,0-1.465-2.113-1.944-3.367-2s-1.078.927-1.078.927v7.357c0,2.555,1.016,3.757,3.482,3.757,2.4,0,4.792-1.915,5.691-2.961,0,0,0,2,.038,3.508.006.223.013.4.021.528a.88.88,0,0,0,1.017.84c3.417,0,3.338-2.42,3.338-2.42V25.314H70.62a1.055,1.055,0,0,0,1.152-1.021c0-.488-.011-.833-.011-.833Z" transform="translate(-3.929 -1.148)" fill="#125a9e"/>
    <path id="Path_365995" data-name="Path 365995" d="M85.152,32.374a8.616,8.616,0,0,1-4.789,1.335,3.266,3.266,0,0,1-3.529-3.582c0-1.091.672-3.789,3.295-3.789a1.44,1.44,0,0,1,1.589,1.493c0,1.111-1.255,2.447-3.942,2.6A2.65,2.65,0,0,0,80.511,31.9c1.561,0,5.314-1.137,5.006-4.634-.239-2.721-2.8-3.528-4.9-3.528-4.913,0-8.671,3.025-8.321,7.128.382,4.481,4.376,5.056,7.012,5.056,2.672,0,5.12-1.134,6.026-2.4a1.663,1.663,0,0,0,.368-.851A.332.332,0,0,0,85.152,32.374Z" transform="translate(-5.178 -1.661)" fill="#125a9e"/>
    <path id="Path_365996" data-name="Path 365996" d="M48.5,12.315V7.752H44.937v4.563h-3.6V.94h3.6V5.212H48.5V.94h3.615V12.315Z" transform="translate(-2.954 -0.021)" fill="#ed1c24"/>
    <path id="Path_365997" data-name="Path 365997" d="M61.372,6.131c0-2.359-.489-2.879-2.128-2.879h-.918V9.974h.918c1.639,0,2.128-.582,2.128-2.941ZM59.122,12.5c-1.594,0-2.742-.061-4.287-.2V.925c1.546-.139,2.648-.2,4.287-.2,3.98,0,5.787,1.531,5.787,5.4v.9C64.91,10.968,63.148,12.5,59.122,12.5Z" transform="translate(-3.925 -0.006)" fill="#ed1c24"/>
    <path id="Path_365998" data-name="Path 365998" d="M70.807,3.39V5.411H75.14V7.677H70.807v4.638h-3.6V.94h8.267V3.39Z" transform="translate(-4.814 -0.021)" fill="#ed1c24"/>
    <path id="Path_365999" data-name="Path 365999" d="M82.172,12.57c-3.569,0-5.36-1.271-5.36-5.436V6.063c0-4.149,1.791-5.419,5.359-5.419a18.9,18.9,0,0,1,3.321.336v2.4c-.811-.062-1.9-.123-2.878-.123-1.453,0-2.174.443-2.174,2.8V7.134c0,2.39.72,2.834,2.174,2.834.98,0,2.067-.061,2.878-.123v2.389A17.519,17.519,0,0,1,82.172,12.57Z" transform="translate(-5.505 0)" fill="#ed1c24"/>
    <path id="Path_366000" data-name="Path 366000" d="M33.52,34.053h0l-9.461-9.461H9.722V10.256h0L.262.795h0V34.053Z" transform="translate(0 -0.011)" fill="#b01419"/>
    <path id="Path_366001" data-name="Path 366001" d="M9.723,10.256H24.059V24.591l9.461,9.461V.795H.262Z" transform="translate(0 -0.011)" fill="#ed1c24"/>
    <path id="Path_366002" data-name="Path 366002" d="M9.361,50.631c.868-1.051.841-1.288.841-1.288a1.057,1.057,0,0,0-.96-.71c-.75-.026-1.618.855-1.789,1.868S8.137,52.116,9.361,50.631ZM18.685,46.4c.182.1-.239,1.032-.239,1.032-1.8-.429-3.386,2.013-3.669,2.85a5.432,5.432,0,0,0-.3,1.727l-.714.271c-.362-.15-.028-1.542-.028-1.542-3.285,3.084-3.59-.086-3.59-.086-1.512,1.91-3.689,2.113-3.588.276A3.165,3.165,0,0,1,9.47,48.074a1.9,1.9,0,0,1,1.593.888c-.085.37-.6,2.457.731,2.449C12.339,51.408,13.8,50,13.8,50a6.546,6.546,0,0,0,.069-.682c.016-.369-.008-.941-.008-.941a2.435,2.435,0,0,1,.784-.171c.269.026.162.294.162.294s-.4,1.265-.391,1.343.032.068.032.068C16.22,46.21,18.5,46.3,18.685,46.4Z" transform="translate(-0.453 -3.288)" fill="#ed1c24"/>
    <path id="Path_366003" data-name="Path 366003" d="M58.635,49.191a2.608,2.608,0,0,0-.4,1,5.643,5.643,0,0,0,1.326-.336c.65-.252.773-1.08.242-1.186A1.145,1.145,0,0,0,58.635,49.191Zm2.7,1.822a.511.511,0,0,1,.221.414,3.036,3.036,0,0,1-2.3.828c-.735-.012-1.952-.269-1.862-1.65a2.843,2.843,0,0,1,.266-.981A2.614,2.614,0,0,1,59.3,48.2a2.326,2.326,0,0,1,.8-.084c.428.039,1.041.216.987.908-.088,1.114-2.855,1.567-2.855,1.567,0,.11.059,1.023,1.345,1.1A2.574,2.574,0,0,0,61.338,51.013Z" transform="translate(-4.108 -3.414)" fill="#ed1c24"/>
    <path id="Path_366004" data-name="Path 366004" d="M70.628,45.677c.184.31.009.577-.289.811-.33.26-.851.254-.982-.007a.753.753,0,0,1,.4-.875C70.1,45.385,70.48,45.426,70.628,45.677Z" transform="translate(-4.966 -3.223)" fill="#ed1c24"/>
    <path id="Path_366005" data-name="Path 366005" d="M65.808,48.337c.437-.134,1.379-.529,1.2-.085a13.546,13.546,0,0,0-.473,2.29c-.066.553-.321,2.5-.452,3.19S65.3,55.672,64.2,55.75c-.854.06-1.41-.185-1.545-.541s.187-1,.306-.935.591.987,1.348.938.976-1.193,1.1-2.426S65.767,48.615,65.808,48.337Z" transform="translate(-4.484 -3.409)" fill="#ed1c24"/>
    <path id="Path_366006" data-name="Path 366006" d="M69.8,48.587s-1.572,2.819-.214,2.866a2.835,2.835,0,0,0,2.012-1.06,14.484,14.484,0,0,1,.627-1.965c.12-.051.775.185.717.4s-1.167,2.433-.043,2.61,1.9-1.085,1.9-1.085.729-1.942.808-1.963.918.128.85.478a9.838,9.838,0,0,1-1.142,1.894,9.464,9.464,0,0,0-.683,2.609c-.091.7-.029,1.976-.148,2.144a.842.842,0,0,1-.938.025,19.918,19.918,0,0,1,.415-2.535c.266-1.005.493-1.636.493-1.636s-1.145,1.035-2,.906-.857-1.114-.857-1.114a3.876,3.876,0,0,1-2.381,1.071c-1.2-.059-1.049-1.476-.98-1.811a8.081,8.081,0,0,1,.581-1.937c.136-.2.315-.158.492-.1S69.8,48.587,69.8,48.587Z" transform="translate(-4.885 -3.43)" fill="#ed1c24"/>
    <path id="Path_366007" data-name="Path 366007" d="M80.567,51.221a1.681,1.681,0,0,0,.4-2.149c-.386-.47-1.327-.461-2.132.242a1.647,1.647,0,0,0-.46,2.1A1.621,1.621,0,0,0,80.567,51.221Zm1.356-2.252c.524.894-.064,2.212-1.313,2.944s-2.683.6-3.21-.293c-.433-.735.052-2.234,1.313-2.944C80.113,47.888,81.4,48.075,81.923,48.969Z" transform="translate(-5.536 -3.418)" fill="#ed1c24"/>
    <path id="Path_366008" data-name="Path 366008" d="M85.848,53c-.209.7-1.271.336-1.365,0C84.159,51.866,86.085,52.024,85.848,53Z" transform="translate(-6.054 -3.708)" fill="#ed1c24"/>
    <path id="Path_366009" data-name="Path 366009" d="M.336,51.721a.128.128,0,0,1-.075-.141c.015-.225.079-.811.527-.811.583,0,1.556.779,2.562.64,0,0,.981-.013,1.048-.9s-1.019-1.6-1.5-1.988c-.463-.372-1.624-1.26-1.484-2.417.168-1.377,1.822-1.632,2.377-1.638.753-.01,2.256.325,2.1,1.093a.878.878,0,0,1-.63.626c-.08-.115-.118-.164-.183-.249A1.894,1.894,0,0,0,3.523,45a1.193,1.193,0,0,0-1.181,1.247c-.005.394.177.85,1.615,1.957,1.371,1.057,1.484,1.752,1.382,2.305a2.407,2.407,0,0,1-2.545,1.571A7.133,7.133,0,0,1,.336,51.721Z" transform="translate(0 -3.151)" fill="#ed1c24"/>
    <path id="Path_366010" data-name="Path 366010" d="M42.419,50.523c.894-1.031.912-1.29.912-1.29a1.206,1.206,0,0,0-1.03-.71c-.75-.027-1.618.855-1.789,1.867S41.2,51.925,42.419,50.523ZM26.15,48.157c0,.2-1.531,3.074.064,3.109,1.065,0,2.839-1.583,2.839-1.583s.364-1.381.338-1.4a7.12,7.12,0,0,1-.982-.018,1.094,1.094,0,0,1,.129-.5c.051-.04.932.034.94-.021a4.247,4.247,0,0,0,0-1.2,1.446,1.446,0,0,1,.96-.293c.15.044.322.172-.047,1.43a6.2,6.2,0,0,0,1.487-.2.514.514,0,0,1,.008.595,5.549,5.549,0,0,1-1.655.173,12.571,12.571,0,0,0-.606,2.491c-.021.256.133.717.816.66a4.474,4.474,0,0,0,2.4-1.494s.415-1.93.629-3.359a6.115,6.115,0,0,0,.028-1.4,1.575,1.575,0,0,1,.983-.267c.145.043.21.313-.115,1.659a30.78,30.78,0,0,0-.772,4.336c.2-.28,2.337-2.932,3-3.077a.5.5,0,0,1,.556.553c-.038.236-.621,2.892.815,2.879,1.058-.006,1.89-1.417,1.89-1.417a3.1,3.1,0,0,1,2.692-1.851,2.033,2.033,0,0,1,1.636.9s-.526,2.333.9,2.388a2.073,2.073,0,0,0,1.519-.72s.355.257.355.346a3.234,3.234,0,0,1-2.308,1.064c-1.272-.009-1.361-1.41-1.361-1.41a4.67,4.67,0,0,1-2.643,1.559c-1,.069-1.006-1.2-1.006-1.2a2.873,2.873,0,0,1-2.158,1.055c-1.371,0-1.534-1.478-1.332-2.928.016-.1-.3.08-.544.317a7.8,7.8,0,0,0-1.727,2.562c-.075.1-1.03-.03-1.033-.2a6.889,6.889,0,0,0,.013-.946,6.233,6.233,0,0,1-3.1,1.32c-1.417.041-.865-1.5-.865-1.5a6.51,6.51,0,0,1-2.949,1.335c-1.4.089-1.228-1.383-1.228-1.383s-1.211,1.445-2.391,1.39c-1.675-.078-.533-3.13-.134-3.769a.071.071,0,0,1,.048-.028c.138,0,.983-.168.978-.017-.005.171-.427.585-.644,1.078s-.843,1.716.206,1.894S24.7,49.428,24.7,49.428s.3-.925.464-1.313C25.457,48.043,26.152,48.005,26.15,48.157Z" transform="translate(-1.523 -3.179)" fill="#ed1c24"/>
    <path id="Path_366011" data-name="Path 366011" d="M53.446,46.438c-.174,1.253-.632,3.954-.647,4.073-.018.137.063.079.063.079.617-1.115,2.6-2.984,3.126-2.984.5,0,.392.7.392.7-.552-.147-2.307,1.471-2.307,1.471a11.817,11.817,0,0,0,1.149,1.015,19.7,19.7,0,0,0,1.785,1.025,1.407,1.407,0,0,1-.69.5c-.473.049-2.657-2.052-2.657-2.052a3.848,3.848,0,0,0-.9,1.519c-.052.108-.471.088-.716.079-.188-.007.424-3.42.6-5.562a3.659,3.659,0,0,0-.055-1.175,1.393,1.393,0,0,1,.955-.327C53.694,44.844,53.55,45.689,53.446,46.438Z" transform="translate(-3.722 -3.175)" fill="#ed1c24"/>
    <path id="Path_366012" data-name="Path 366012" d="M85.833,49.676c.055.721.39.654.319.821a.629.629,0,0,1-.615.425c-.652-.074-.579-1.47-.462-2.429.146-1.21.408-1.982.48-2.751a3.265,3.265,0,0,0-.043-1.1,1.822,1.822,0,0,1,1.037-.287c.145.042-.005.835-.116,1.54A15.51,15.51,0,0,0,85.833,49.676Z" transform="translate(-6.094 -3.142)" fill="#ed1c24"/>
    <path id="Path_366013" data-name="Path 366013" d="M67.568,45.455c.184.311-.008.561-.306.795-.33.261-.834.271-.965.01a.751.751,0,0,1,.4-.875C67.046,45.163,67.421,45.205,67.568,45.455Z" transform="translate(-4.746 -3.207)" fill="#ed1c24"/>
  </g>
</svg>
