<svg xmlns="http://www.w3.org/2000/svg" width="19.141" height="20.418" viewBox="0 0 19.141 20.418">
  <path id="Icon_metro-calendar" data-name="Icon metro-calendar" d="M8.951,9.585H11.5v2.552H8.951Zm3.828,0h2.552v2.552H12.779Zm3.828,0H19.16v2.552H16.608ZM5.123,17.241H7.675v2.552H5.123Zm3.828,0H11.5v2.552H8.951Zm3.828,0h2.552v2.552H12.779ZM8.951,13.413H11.5v2.552H8.951Zm3.828,0h2.552v2.552H12.779Zm3.828,0H19.16v2.552H16.608Zm-11.485,0H7.675v2.552H5.123ZM19.16,1.928V3.2H16.608V1.928H7.675V3.2H5.123V1.928H2.571V22.346H21.712V1.928H19.16Zm1.276,19.141H3.847V7.032H20.436Z" transform="translate(-2.571 -1.928)" fill="#005e9c"/>
</svg>
